<svg xmlns="http://www.w3.org/2000/svg" viewBox="0 0 160 160" fill="currentColor">
  <path d="M140,51H99V40c0-10.477-8.523-19-19-19c-10.477,0-19,8.523-19,19v11H20c-1.232,0-2.395,0.567-3.153,1.539c-0.758,0.971-1.026,2.237-0.728,3.432l20,80C36.564,137.751,38.165,139,40,139h80c1.836,0,3.436-1.249,3.881-3.029l20-80c0.299-1.195,0.029-2.461-0.729-3.432C142.395,51.567,141.232,51,140,51z M69,40c0-6.065,4.935-11,11-11c6.064,0,11,4.935,11,11v11H69V40z M116.877,131H43.123l-18-72h109.754L116.877,131z M58.96,109.434c0.312,2.188-1.208,4.215-3.394,4.526c-0.192,0.026-0.383,0.04-0.571,0.04c-1.958,0-3.67-1.439-3.955-3.434l-5-35c-0.312-2.187,1.208-4.213,3.394-4.526c2.191-0.313,4.213,1.208,4.526,3.394L58.96,109.434z M101.04,109.434l5-35c0.313-2.187,2.331-3.707,4.526-3.394c2.186,0.313,3.705,2.339,3.394,4.526l-5,35c-0.285,1.994-1.997,3.434-3.955,3.434c-0.188,0-0.378-0.014-0.571-0.04C102.248,113.646,100.729,111.621,101.04,109.434z M84,75v35c0,2.209-1.791,4-4,4s-4-1.791-4-4V75c0-2.209,1.791-4,4-4S84,72.791,84,75z"/>
</svg>
